<?xml version="1.0" encoding="utf-8"?>
<!-- Generator: Adobe Illustrator 28.0.0, SVG Export Plug-In . SVG Version: 6.00 Build 0)  -->
<svg version="1.1" id="Outline" xmlns="http://www.w3.org/2000/svg" xmlns:xlink="http://www.w3.org/1999/xlink" x="0px" y="0px"
	 viewBox="0 0 48 48" style="enable-background:new 0 0 48 48;" xml:space="preserve">
<style type="text/css">
	.st0{fill:#E62F30;}
</style>
<g>
	<path class="st0" d="M44.72,25.6c0,0,2.55-3.83,2.57-3.85c0.48-0.72-0.07-1.74-0.93-1.74h-7.82v-2.42c0-0.51-0.35-0.96-0.85-1.08
		c-2.16-0.54-3.67-2.47-3.67-4.7c0-0.53-0.37-0.99-0.89-1.09l-8.89-1.85c-0.15-0.03-0.31-0.03-0.46,0l-8.89,1.85
		C14.37,10.82,14,11.28,14,11.81c0,2.23-1.51,4.16-3.67,4.7c-0.5,0.12-0.85,0.57-0.85,1.08v2.42c0,0-7.81,0-7.82,0
		c-0.84,0-1.43,0.98-0.93,1.74L3.3,25.6c0,0-2.57,3.85-2.57,3.85c-0.49,0.73,0.05,1.74,0.93,1.74h10.11c2.46,4.43,6.73,7.74,12,8.91
		c0.08,0.02,0.16,0.03,0.24,0.03s0.16-0.01,0.24-0.03c5.27-1.17,9.54-4.48,12-8.91c0,0,10.06,0,10.11,0c0.83,0,1.43-0.99,0.93-1.74
		L44.72,25.6z M6.13,22.81h3.47v0.04c0,2.15,0.41,4.2,1.15,6.1h-6.4l1.67-2.5c0.23-0.34,0.23-0.79,0-1.14l-1.67-2.5H6.13
		 M16.55,13.52c0.01-0.07,0.02-0.14,0.03-0.21l7.43-1.55l7.43,1.55c0.32,2.44,1.94,4.5,4.23,5.39v3.69c0,2.47-0.59,4.8-1.63,6.88
		c-0.03,0.05-0.06,0.1-0.08,0.15c-1.97,3.81-5.52,6.7-9.95,7.76c-4.43-1.06-7.98-3.94-9.95-7.76c-0.02-0.06-0.05-0.1-0.08-0.15
		c-1.04-2.07-1.63-4.41-1.63-6.88v-3.69C14.57,17.84,16.17,15.87,16.55,13.52 M41.89,22.47h1.92l-1.7,2.55
		c-0.23,0.35-0.23,0.81,0,1.16l1.7,2.55h-6.53c0.75-1.93,1.17-4.03,1.17-6.22v-0.04H41.89"/>
	<path class="st0" d="M29.51,19.41l-7.62,7.62l-3.39-3.39c-0.46-0.46-1.22-0.46-1.68,0c-0.46,0.46-0.46,1.22,0,1.68
		c0,0,4.23,4.23,4.23,4.23c0.43,0.43,1.21,0.48,1.68,0l8.46-8.46c0.46-0.46,0.46-1.22,0-1.68C30.73,18.95,29.98,18.95,29.51,19.41z"
		/>
</g>
</svg>
