<?xml version="1.0" encoding="utf-8"?>
<!-- Generator: Adobe Illustrator 28.0.0, SVG Export Plug-In . SVG Version: 6.00 Build 0)  -->
<svg version="1.1" xmlns="http://www.w3.org/2000/svg" xmlns:xlink="http://www.w3.org/1999/xlink" x="0px" y="0px"
	 viewBox="0 0 64 64" style="enable-background:new 0 0 64 64;" xml:space="preserve">
<style type="text/css">
	.st0{fill:#E62F30;stroke:#E62F30;stroke-width:2;stroke-miterlimit:10;}
	.st1{fill:#E62F30;stroke:#E62F30;stroke-miterlimit:10;}
</style>
<g id="Layer_1">
	<path class="st0" d="M59.4,7c-0.2-0.2-0.5-0.3-0.8-0.2c-17.3,2.1-25.9-4.5-26-4.6c-0.4-0.3-0.9-0.3-1.3,0
		c-0.1,0.1-7.2,5.6-21.8,4.9C9.3,7.8,9,8.5,8.5,9.1C22.1,10,29.8,5.7,32,4.2c2.3,1.5,10.6,6.2,25.7,4.7v19.4
		c0,9.4-3.9,18.1-10.8,23.8c-4.1,3.4-9.1,6.1-14.9,7.8c-5.8-1.7-10.8-4.3-14.9-7.8C10.2,46.4,6.3,37.7,6.3,28.4v-18
		c-0.4,0.1-0.9,0.2-1.4,0.2c-0.2,0-0.4,0-0.6,0v17.8c0,10,4.2,19.2,11.5,25.4c4.4,3.7,9.8,6.4,15.9,8.2c0.1,0,0.2,0,0.3,0
		c0.1,0,0.2,0,0.3,0c6.2-1.8,11.5-4.5,15.9-8.2c7.3-6.1,11.5-15.4,11.5-25.4V7.8C59.7,7.5,59.6,7.2,59.4,7z"/>
	<path class="st0" d="M4.7,7.1c0.2-0.2,0.5-0.3,0.8-0.2c17.3,2.1,25.9-4.5,26-4.6c0.4-0.3,0.9-0.3,1.3,0c0.1,0.1,7.2,5.6,21.8,4.9
		c0.2,0.7,0.6,1.4,1.1,2C41.9,10,34.2,5.7,32,4.2c-2.3,1.5-10.6,6.2-25.7,4.7v19.4c0,9.4,3.9,18.1,10.8,23.8
		c4.1,3.4,9.1,6.1,14.9,7.8c5.8-1.7,10.8-4.3,14.9-7.8c6.9-5.8,10.8-14.5,10.8-23.8v-18c0.4,0.1,0.9,0.2,1.4,0.2c0.2,0,0.4,0,0.6,0
		v17.8c0,10-4.2,19.2-11.5,25.4c-4.4,3.7-9.8,6.4-15.9,8.2c-0.1,0-0.2,0-0.3,0c-0.1,0-0.2,0-0.3,0c-6.2-1.8-11.5-4.5-15.9-8.2
		C8.5,47.6,4.3,38.4,4.3,28.4V7.8C4.3,7.5,4.4,7.3,4.7,7.1z"/>
	<path class="st1" d="M21.4,42.8c2,0,3.6-1.4,4.1-3.2h13.8c0.5,1.8,2.1,3.2,4.1,3.2s3.6-1.4,4.1-3.2h1.3c1.5,0,2.7-1.2,2.7-2.7v-6.3
		c0-0.3-0.1-0.6-0.2-0.9c0,0,0-0.1-0.1-0.1c-0.1-0.1-0.1-0.3-0.2-0.4l-4.6-7.4c-0.5-0.8-1.4-1.3-2.3-1.3h-5.8v-3.3
		c0-1-0.8-1.8-1.8-1.8H14.3c-1,0-1.8,0.8-1.8,1.8v20.7c0,1,0.8,1.8,1.8,1.8h3C17.8,41.4,19.4,42.8,21.4,42.8z M21.4,40.8
		c-1.2,0-2.2-1-2.2-2.2c0,0,0,0,0,0s0,0,0,0c0-1.2,1-2.2,2.2-2.2s2.2,1,2.2,2.2S22.7,40.8,21.4,40.8L21.4,40.8z M43.4,40.8
		c-1.2,0-2.2-1-2.2-2.2c0,0,0,0,0,0c0,0,0,0,0,0c0-1.2,1-2.2,2.2-2.2s2.2,1,2.2,2.2c0,0,0,0,0,0s0,0,0,0
		C45.6,39.8,44.6,40.8,43.4,40.8L43.4,40.8z M48.6,29H42v-4.1h4.2L48.6,29z M44.2,22.4c0.3,0,0.5,0.1,0.6,0.4l0.1,0.2h-3.6
		c-0.7,0-1.4,0.6-1.4,1.4v4.9c0,1,0.8,1.8,1.8,1.8h7.7v5.9c0,0.4-0.3,0.7-0.7,0.7h-1.3c-0.5-1.8-2.1-3.2-4.1-3.2s-3.6,1.4-4.1,3.2
		h-0.9V22.4H44.2z M14.5,17.3h21.9v20.3H25.5c-0.5-1.8-2.1-3.2-4.1-3.2s-3.6,1.4-4.1,3.2h-2.8V17.3z"/>
</g>
<g id="Layer_2">
</g>
</svg>
