<?xml version="1.0" encoding="UTF-8"?>
<svg id="Outline" xmlns="http://www.w3.org/2000/svg" viewBox="0 0 47.38 46.21">
  <defs>
    <style>
      .cls-1 {
        fill: #e62f30;
        stroke-width: 0px;
      }
    </style>
  </defs>
  <path class="cls-1" d="m33.53,18.95c-.83-2.54-2.45-4.49-4.82-5.78-2.59-1.4-5.3-1.64-8.07-.71-2.76.93-4.79,2.75-6.04,5.39-1.24,2.64-1.31,5.4-.19,8.21.56,1.42,1.53,2.58,2.4,3.54.93,1.02,1.67,2.23,2.2,3.59.41,1.06.66,2.07.77,3.1.01.13.12.23.25.23h.89c.14,0,.25-.11.25-.25,0-.79,0-3.24,0-4.46,0-1.48,0-2.96,0-4.44,0-.23-.05-.31-.29-.29-.36.03-.72.01-1.07-.08-.96-.26-1.57-1.04-1.62-2.08-.05-.91.51-1.8,1.35-2.13.91-.36,1.98-.11,2.59.59.48.55.56,1.2.52,1.88-.01.23.04.34.3.33.58-.02,1.17-.02,1.75,0,.24,0,.3-.08.29-.31-.02-.33-.02-.67.06-1,.23-.9.93-1.52,1.86-1.64.82-.11,1.68.33,2.1,1.07.44.77.37,1.82-.15,2.49-.53.68-1.25.89-2.08.86-.19,0-.31,0-.31.26,0,2.62,0,7.73,0,8.93,0,.14.11.25.25.25h.91c.13,0,.23-.11.25-.24.05-.54.17-1.04.27-1.48.5-2,1.46-3.82,2.87-5.39.65-.73,1.32-1.53,1.8-2.46,1.34-2.59,1.57-5.28.69-8Z"/>
  <path class="cls-1" d="m24.01,46.21h-.34c-1.13,0-2.05-.92-2.05-2.05h4.45c0,1.13-.92,2.05-2.05,2.05Zm4.89-3.22h-10.12c-.9,0-1.63-.66-1.63-1.48h13.38c0,.82-.73,1.48-1.63,1.48Zm.81-2.93h-11.75c-.45,0-.81-.33-.81-.74s.36-.74.81-.74h11.75c.45,0,.81.33.81.74s-.36.74-.81.74Zm16.21-15.96c-.07.23-.13.46-.21.68-.56,1.67-2.07,2.75-3.87,2.78-.91.02-.91.02-1.24.86-.18.45-.33.93-.58,1.34-.28.46-.18.74.2,1.07.69.6,1.14,1.36,1.3,2.28.24,1.32-.06,2.5-.96,3.48-.7.77-1.43,1.5-2.19,2.21-1.03.97-2.35,1.31-3.6,1.06-.47-.1-.87-.34-1.16-.68,0-.04,0-.08,0-.11v-1.17c0-.43.04-.86.11-1.26.24-.06.51,0,.72.19l.04.04c.67.65,1.51.64,2.18-.02.63-.61,1.25-1.23,1.87-1.86.65-.67.65-1.51,0-2.19-.4-.42-.81-.81-1.22-1.22-.13-.13-.19-.3-.2-.47,0-.13.03-.26.11-.38,1.02-1.59,1.71-3.31,2.07-5.14.04-.19.15-.36.3-.46.12-.09.27-.14.43-.15.6,0,1.21,0,1.81,0,.85-.02,1.47-.63,1.48-1.48.02-.92.02-1.84,0-2.76-.01-.85-.63-1.47-1.48-1.47-.6-.01-1.21,0-1.81,0h0c-.15,0-.3-.05-.42-.12-.22-.12-.38-.34-.44-.59-.4-1.67-1.07-3.22-2.01-4.66-.17-.25-.21-.58-.1-.85.03-.08.08-.16.14-.23.04-.04.08-.09.13-.14.42-.44.87-.86,1.29-1.3.55-.58.54-1.49-.02-2.06-.64-.66-1.28-1.3-1.93-1.94-.65-.64-1.5-.63-2.15,0-.41.4-.81.82-1.23,1.22,0,0,0,0,0,0-.12.12-.27.21-.43.26-.33.11-.72.08-1.03-.11-1.32-.8-2.73-1.38-4.21-1.74-.37-.09-.68-.34-.83-.68-.06-.14-.1-.29-.1-.45v-.02c0-.59,0-1.18,0-1.77-.02-.88-.62-1.49-1.5-1.5-.91,0-1.81,0-2.72,0-.87.01-1.49.63-1.5,1.5,0,.58,0,1.18,0,1.77v.02c0,.18-.04.36-.12.52-.15.34-.45.6-.83.69-1.47.36-2.87.93-4.15,1.69-.32.19-.7.22-1.03.11-.17-.06-.32-.15-.45-.28h-.01c-.43-.43-.85-.88-1.29-1.29-.6-.57-1.46-.57-2.06.02-.66.64-1.31,1.29-1.96,1.95-.61.63-.61,1.48,0,2.12.4.42.83.83,1.25,1.25h0c.13.14.23.3.28.48.09.31.05.64-.13.93-.84,1.35-1.48,2.84-1.89,4.42-.07.26-.24.49-.46.62-.15.09-.33.15-.51.15h0c-.6,0-1.21,0-1.81,0-.85.02-1.47.63-1.49,1.47,0,.46,0,.92,0,1.39s0,.89,0,1.34c.01.9.62,1.51,1.52,1.53.59,0,1.18,0,1.77,0h.03c.19,0,.36.06.5.17.15.11.26.29.31.49.12.56.27,1.11.45,1.66.38,1.19.9,2.3,1.56,3.36.08.12.11.26.11.4,0,.18-.08.36-.21.5h-.01c-.4.42-.82.83-1.22,1.24-.67.69-.67,1.53.01,2.22.6.62,1.22,1.23,1.83,1.83.68.68,1.53.67,2.22,0l.04-.04c.22-.21.51-.27.77-.2.08.45.11.94.1,1.45,0,.17,0,.35,0,.51v.5s0,.08,0,.11c-.3.34-.7.58-1.16.67-.02,0-.05,0-.07.01-1.3.23-2.47-.05-3.45-.94-.8-.72-1.57-1.49-2.3-2.28-1.46-1.58-1.47-3.97.06-5.5.6-.6.72-1.06.28-1.75-.25-.4-.53-1.32-.53-1.32,0,0-.28-.53-.68-.49-1,.08-1.94-.14-2.78-.74-.96-.69-1.58-1.62-1.68-2.8-.11-1.31-.17-2.65.03-3.96.3-1.98,1.93-3.36,3.92-3.4.33,0,.74.1.96-.06.23-.15.26-.58.39-.89.21-.51.43-1.03.68-1.53.12-.24.09-.38-.1-.55-.76-.69-1.36-1.48-1.54-2.53-.23-1.28.04-2.45.91-3.41.75-.85,1.57-1.65,2.41-2.42,1.53-1.38,3.92-1.34,5.4.15.6.6,1.05.72,1.76.28.43-.27.94-.41,1.43-.57.28-.09.39-.21.37-.51-.04-.72,0-1.44.3-2.12.58-1.29,1.55-2.11,2.94-2.43.08-.02.17.01.23-.09h3.97c1.89.32,3.08,1.43,3.5,3.26.09.4.07.8.06,1.21,0,.29.08.49.38.59.68.23,1.35.51,2,.82.29.14.46-.02.63-.21.64-.69,1.42-1.19,2.34-1.37,1.28-.25,2.47-.02,3.49.83.92.77,1.76,1.62,2.54,2.53,1.38,1.61,1.3,4.04-.17,5.6-.65.69-.66.69-.25,1.53.2.41.37.85.51,1.28.12.38.33.53.73.5,1-.08,1.91.18,2.72.77.95.69,1.55,1.6,1.65,2.8v3.97Z"/>
  <path class="cls-1" d="m27.05,25.57h0s.06,0,.1,0c.61,0,.92-.32.84-.85-.06-.39-.34-.62-.75-.61-.02,0-.04,0-.05,0-.37.03-.61.26-.65.62-.01.12-.13.77.51.83Z"/>
  <path class="cls-1" d="m24.68,27.07c-.57.02-1.15.01-1.72,0-.22,0-.31.04-.31.28,0,2.61,0,7.72,0,8.91,0,.14.11.25.25.25h1.84c.14,0,.25-.11.25-.25,0-.8,0-3.27,0-4.5,0-1.45,0-2.91,0-4.36,0-.25-.06-.35-.33-.34Z"/>
  <path class="cls-1" d="m20.46,24.12c-.41-.01-.69.21-.75.61-.08.53.23.85.84.85.75,0,.63-.71.61-.84-.04-.38-.31-.61-.7-.63Z"/>
</svg>